<?xml version="1.0" standalone="no"?><!DOCTYPE svg PUBLIC "-//W3C//DTD SVG 1.1//EN" "http://www.w3.org/Graphics/SVG/1.1/DTD/svg11.dtd"><svg t="1723616278560" class="icon" viewBox="0 0 1024 1024" version="1.1" xmlns="http://www.w3.org/2000/svg" p-id="16037" xmlns:xlink="http://www.w3.org/1999/xlink" width="200" height="200"><path d="M892.716838 922.912556c0 12.878753-5.106865 25.232378-14.178443 34.343341A48.324861 48.324861 0 0 1 844.300079 971.486853H166.557359c-12.82624 0-25.140481-5.119993-34.225187-14.230956A48.653066 48.653066 0 0 1 118.153728 922.912556V48.575216c0-12.878753 5.106865-25.232378 14.178444-34.343341A48.324861 48.324861 0 0 1 166.557359 0.000919h415.848492c12.865625-0.078769 25.232378 4.988712 34.369597 14.086546l261.907357 262.786945A48.653066 48.653066 0 0 1 892.716838 311.362161V922.912556z" fill="#EBECF0" p-id="16038"></path><path d="M892.716838 932.102288v45.948659c0 12.182959-5.106865 23.867046-14.178443 32.492266A49.755834 49.755834 0 0 1 844.300079 1023.999606H166.570487C139.815239 1023.999606 118.153728 1003.427735 118.153728 978.050947V932.102288c0 12.182959 5.106865 23.867046 14.178444 32.492266a49.755834 49.755834 0 0 0 34.225187 13.456393h677.74272a49.755834 49.755834 0 0 0 34.238316-13.456393A44.793378 44.793378 0 0 0 892.716838 932.102288z" fill="#C1C7D0" p-id="16039"></path><path d="M26.25641 538.256639h971.485934v240.679076a47.917887 47.917887 0 0 1-14.230956 34.041392A48.797476 48.797476 0 0 1 949.168048 827.076782H74.830707a48.797476 48.797476 0 0 1-34.343341-14.099675A47.917887 47.917887 0 0 1 26.25641 778.935715V538.256639z" fill="#4CAF50" p-id="16040"></path><path d="M184.044105 629.878265h108.937707v28.094323h-68.200938v20.900076h63.277867v26.834017h-63.277867v25.928172h70.183294V761.43584h-110.933191V629.878265z m123.746303 0h44.780251l23.341918 40.474205 22.606741-40.474205h44.333891l-40.920562 63.711098L446.712897 761.43584h-45.686095l-25.928172-42.272766L349.07856 761.43584h-45.423531l45.423531-68.568527-41.288152-62.989048z m239.615693 77.797644l35.629903 10.765115c-2.38933 10.003679-6.170248 18.340079-11.30337 25.048583-5.14625 6.695376-11.539678 11.749729-19.167155 15.163057-7.614349 3.413329-17.329209 5.119993-29.118322 5.119994-14.309725 0-25.980685-2.087382-35.052262-6.23589-9.05845-4.161636-16.88285-11.474037-23.460073-21.950331-6.577222-10.463166-9.872398-23.867046-9.872397-40.198512 0-21.792793 5.789531-38.518104 17.368593-50.21532 11.579062-11.684088 27.963041-17.53926 49.138809-17.53926 16.567774 0 29.590936 3.347688 39.082616 10.043064 9.478552 6.695376 16.528389 17.001004 21.136383 30.877499l-35.905595 7.981938c-1.260306-4.004097-2.573125-6.931683-3.938456-8.795886a23.381303 23.381303 0 0 0-8.349528-7.181119 23.972072 23.972072 0 0 0-11.040806-2.507484c-9.215988 0-16.278953 3.715277-21.188896 11.132704-3.702149 5.500711-5.553224 14.139059-5.553224 25.928172 0 14.598545 2.205536 24.602225 6.629735 30.024167 4.437328 5.408814 10.660089 8.126349 18.668284 8.126348 7.785016 0 13.653316-2.192407 17.644285-6.564094 3.977841-4.358559 6.866042-10.699473 8.664604-19.022745z m55.282801-77.797644h108.950835v28.094323h-68.200939v20.900076h63.277868v26.834017h-63.277868v25.928172h70.170167V761.43584h-110.920063V629.878265z m132.817881 0h40.657999v99.157206h63.448534V761.43584h-104.106533V629.878265z" fill="#FFFFFF" p-id="16041"></path><path d="M123.352491 538.256639v-91.897318L26.25641 538.256639h97.096081z m776.794901 0l0.984615-91.897318L997.742344 538.256639h-97.581823z" fill="#008E06" p-id="16042"></path><path d="M905.845026 321.195174V328.205626H639.920444C612.771351 328.205626 590.768507 305.769553 590.768507 278.095332V0.000919a48.679322 48.679322 0 0 1 34.894725 14.532904l266.410325 271.083961A50.635422 50.635422 0 0 1 905.845026 321.195174z" fill="#C1C7D0" p-id="16043"></path></svg>