<?xml version="1.0" standalone="no"?><!DOCTYPE svg PUBLIC "-//W3C//DTD SVG 1.1//EN" "http://www.w3.org/Graphics/SVG/1.1/DTD/svg11.dtd"><svg t="1723790510581" class="icon" viewBox="0 0 1024 1024" version="1.1" xmlns="http://www.w3.org/2000/svg" p-id="17342" xmlns:xlink="http://www.w3.org/1999/xlink" width="200" height="200"><path d="M880.2 221.6H576.1s-39.1-94-128-94H144.2c-44.2 0-80 35.8-80 80v608c0 44.2 35.8 80 80 80h736c44.2 0 80-35.8 80-80v-514c0-44.1-35.8-80-80-80zM652.9 531.8H553v176.1c0 11.3-4.6 21.5-12 28.8-7.4 7.4-17.6 11.9-28.8 11.9-22.5 0-40.8-18.3-40.8-40.8v-176h-99.9c-25.1 0-38.4-30-21.5-48.7l140.5-139.8c11.5-12.8 31.5-12.8 43 0l141 139.8c16.8 18.7 3.6 48.7-21.6 48.7z" fill="#e35027" p-id="17343" data-spm-anchor-id="a313x.search_index.0.i0.408e3a81mpFTW3" class="selected"></path></svg>