<?xml version="1.0" standalone="no"?><!DOCTYPE svg PUBLIC "-//W3C//DTD SVG 1.1//EN" "http://www.w3.org/Graphics/SVG/1.1/DTD/svg11.dtd"><svg t="1723447658422" class="icon" viewBox="0 0 1024 1024" version="1.1" xmlns="http://www.w3.org/2000/svg" p-id="12187" xmlns:xlink="http://www.w3.org/1999/xlink" width="200" height="200"><path d="M224 144h608c27.2 0 48 20.8 48 48v672c0 27.2-20.8 48-48 48H224c-27.2 0-48-20.8-48-48V192c0-27.2 20.8-48 48-48z" fill="#C2CDE7" p-id="12188"></path><path d="M224 144h608c27.2 0 48 20.8 48 48v208H176V192c0-27.2 20.8-48 48-48z" fill="#BBDEF9" p-id="12189"></path><path d="M387.2 400L588.8 144h256L643.2 400zM275.2 400L476.8 144h48L323.2 400zM196.8 400L400 144h16L212.8 400z" fill="#DEF0FF" p-id="12190"></path><path d="M656 560h128v256h-128z" fill="#72CAAF" p-id="12191"></path><path d="M464 560h128v96h-128zM464 720h128v96h-128zM272 720h128v96h-128z" fill="#85CBF8" p-id="12192"></path><path d="M272 560h128v96h-128z" fill="#ED7899" p-id="12193"></path><path d="M128 320h48v160H128zM880 320h48v160h-48z" fill="#FFEB9B" p-id="12194"></path><path d="M912 304h-16v-128c0-27.2-20.8-48-48-48H208c-27.2 0-48 20.8-48 48v128H144c-17.6 0-32 14.4-32 32v128c0 17.6 14.4 32 32 32h16v384c0 27.2 20.8 48 48 48h640c27.2 0 48-20.8 48-48V496h16c17.6 0 32-14.4 32-32v-128c0-17.6-14.4-32-32-32z m-720-128c0-9.6 6.4-16 16-16h640c9.6 0 16 6.4 16 16v208H192V176zM144 464v-128h16v128H144z m720 416c0 9.6-6.4 16-16 16H208c-9.6 0-16-6.4-16-16V416h672v464z m48-416h-16v-128h16v128z" fill="#8D6C9F" p-id="12195"></path><path d="M384 544h-96c-17.6 0-32 14.4-32 32v64c0 17.6 14.4 32 32 32h96c17.6 0 32-14.4 32-32v-64c0-17.6-14.4-32-32-32z m0 96h-96v-64h96v64zM576 544h-96c-17.6 0-32 14.4-32 32v64c0 17.6 14.4 32 32 32h96c17.6 0 32-14.4 32-32v-64c0-17.6-14.4-32-32-32z m0 96h-96v-64h96v64zM576 704h-96c-17.6 0-32 14.4-32 32v64c0 17.6 14.4 32 32 32h96c17.6 0 32-14.4 32-32v-64c0-17.6-14.4-32-32-32z m0 96h-96v-64h96v64zM768 544h-96c-17.6 0-32 14.4-32 32v224c0 17.6 14.4 32 32 32h96c17.6 0 32-14.4 32-32V576c0-17.6-14.4-32-32-32z m0 256h-96V576h96v224zM384 704h-96c-17.6 0-32 14.4-32 32v64c0 17.6 14.4 32 32 32h96c17.6 0 32-14.4 32-32v-64c0-17.6-14.4-32-32-32z m0 96h-96v-64h96v64zM288 512c9.6 0 16-6.4 16-16v-32c0-9.6-6.4-16-16-16s-16 6.4-16 16v32c0 9.6 6.4 16 16 16zM368 512c9.6 0 16-6.4 16-16v-32c0-9.6-6.4-16-16-16s-16 6.4-16 16v32c0 9.6 6.4 16 16 16zM464 496v-32c0-9.6-6.4-16-16-16s-16 6.4-16 16v32c0 9.6 6.4 16 16 16s16-6.4 16-16zM528 512c9.6 0 16-6.4 16-16v-32c0-9.6-6.4-16-16-16s-16 6.4-16 16v32c0 9.6 6.4 16 16 16zM608 448c-9.6 0-16 6.4-16 16v32c0 9.6 6.4 16 16 16s16-6.4 16-16v-32c0-9.6-6.4-16-16-16zM688 512c9.6 0 16-6.4 16-16v-32c0-9.6-6.4-16-16-16s-16 6.4-16 16v32c0 9.6 6.4 16 16 16zM768 512c9.6 0 16-6.4 16-16v-32c0-9.6-6.4-16-16-16s-16 6.4-16 16v32c0 9.6 6.4 16 16 16zM536 254.4l8-4.8V320c0 9.6 6.4 16 16 16s16-6.4 16-16v-96c0-9.6-6.4-16-16-16-3.2 0-4.8 0-6.4 1.6l-32 16c-8 3.2-11.2 12.8-8 20.8 3.2 8 12.8 11.2 22.4 8-1.6 0-1.6 0 0 0zM744 254.4l8-4.8V320c0 9.6 6.4 16 16 16s16-6.4 16-16v-96c0-9.6-6.4-16-16-16-3.2 0-4.8 0-6.4 1.6l-32 16c-8 4.8-11.2 14.4-6.4 22.4 3.2 6.4 12.8 9.6 20.8 6.4zM624 288h16v16c0 9.6 6.4 16 16 16s16-6.4 16-16v-16h16c9.6 0 16-6.4 16-16s-6.4-16-16-16h-16v-16c0-9.6-6.4-16-16-16s-16 6.4-16 16v16h-16c-9.6 0-16 6.4-16 16s6.4 16 16 16z" fill="#8D6C9F" p-id="12196"></path></svg>